<?xml version="1.0" standalone="no"?>
<!DOCTYPE svg PUBLIC "-//W3C//DTD SVG 20010904//EN"
 "http://www.w3.org/TR/2001/REC-SVG-20010904/DTD/svg10.dtd">
<svg version="1.0" xmlns="http://www.w3.org/2000/svg"
 width="706.000000pt" height="706.000000pt" viewBox="0 0 706.000000 706.000000"
 preserveAspectRatio="xMidYMid meet">
<metadata>
Created by potrace 1.14, written by Peter Selinger 2001-2017
</metadata>
<g transform="translate(0.000000,706.000000) scale(0.100000,-0.100000)"
fill="#000000" stroke="none">
<path d="M3386 6402 c-3 -5 -38 -10 -78 -11 -41 -1 -75 -7 -77 -13 -2 -6 -7
-5 -12 3 -6 10 -9 11 -9 2 0 -8 -14 -13 -36 -13 -19 0 -33 -4 -29 -9 3 -6 -3
-8 -15 -6 -11 2 -22 -1 -25 -6 -4 -5 -11 -7 -16 -4 -5 4 -15 3 -21 -2 -7 -4
-22 -9 -33 -11 -35 -5 -50 -9 -67 -17 -10 -4 -25 -4 -34 -1 -13 5 -14 3 -6 -7
8 -10 6 -13 -11 -14 -12 -1 -23 -7 -25 -12 -2 -5 -10 -7 -19 -4 -10 4 -14 2
-10 -4 4 -6 -3 -9 -18 -7 -14 1 -23 -2 -19 -7 3 -5 -7 -9 -21 -9 -15 0 -24 -4
-20 -10 5 -9 -23 -15 -47 -11 -5 0 -8 -4 -8 -10 0 -6 -7 -9 -14 -6 -10 4 -13
1 -9 -9 5 -13 -21 -21 -52 -14 -5 1 -7 -2 -2 -6 4 -4 -11 -16 -33 -26 -22 -10
-40 -23 -40 -28 0 -6 -6 -9 -12 -7 -7 1 -12 -4 -10 -12 3 -12 1 -12 -14 0 -10
8 -15 9 -11 3 3 -6 -5 -16 -19 -23 -15 -6 -22 -16 -18 -23 5 -7 3 -8 -6 -3 -8
5 -18 1 -27 -10 -9 -14 -13 -15 -13 -4 0 12 -2 12 -9 -1 -6 -8 -7 -18 -4 -24
3 -5 1 -6 -6 -2 -7 4 -20 -2 -31 -16 -11 -13 -19 -19 -20 -15 0 4 -11 -3 -24
-15 -13 -13 -21 -26 -19 -30 2 -5 -1 -8 -7 -8 -6 0 -29 -18 -51 -40 -22 -22
-45 -40 -50 -40 -6 0 -7 -5 -4 -11 4 -6 -2 -13 -14 -16 -11 -3 -19 -9 -16 -13
3 -4 -2 -10 -10 -14 -8 -3 -15 -13 -15 -21 0 -9 -4 -14 -9 -10 -5 3 -12 -3
-16 -14 -3 -11 -12 -22 -20 -25 -8 -3 -15 -13 -15 -22 0 -10 -3 -15 -6 -11 -9
9 -36 -21 -29 -33 3 -5 -1 -10 -9 -10 -9 0 -16 -7 -16 -16 0 -8 -4 -13 -8 -10
-4 2 -14 -4 -21 -16 -10 -16 -10 -19 1 -13 7 3 5 0 -4 -8 -10 -8 -15 -17 -11
-20 3 -4 1 -7 -5 -7 -7 0 -12 -7 -12 -15 0 -8 -4 -15 -10 -15 -5 0 -10 -7 -10
-15 0 -9 -6 -18 -14 -21 -8 -3 -12 -12 -9 -20 3 -8 0 -14 -7 -14 -7 0 -10 -7
-6 -16 3 -8 2 -12 -4 -9 -12 7 -28 -25 -24 -48 1 -11 0 -16 -3 -13 -10 9 -32
-27 -33 -53 0 -15 -5 -21 -14 -18 -10 4 -12 0 -8 -15 3 -14 1 -19 -6 -15 -6 5
-9 -2 -7 -18 1 -14 -2 -25 -7 -25 -6 0 -8 -6 -5 -14 3 -8 0 -17 -8 -20 -9 -3
-12 -15 -9 -32 4 -21 2 -25 -11 -20 -12 4 -14 2 -6 -13 7 -12 6 -22 -1 -29 -9
-9 -8 -12 3 -12 7 -1 2 -8 -13 -16 -16 -8 -28 -19 -28 -23 0 -12 -80 -19 -87
-8 -2 4 -11 3 -19 -4 -11 -9 -14 -9 -14 1 0 9 -3 10 -13 1 -10 -8 -17 -7 -27
2 -8 8 -11 8 -7 1 4 -7 0 -15 -9 -18 -10 -4 -13 -2 -8 7 6 9 4 9 -7 1 -8 -6
-36 -12 -64 -13 -27 -1 -56 -8 -64 -14 -12 -10 -13 -9 -6 3 7 12 5 12 -11 -1
-10 -9 -25 -14 -32 -12 -7 3 -19 0 -27 -7 -8 -6 -19 -9 -25 -5 -5 3 -10 2 -10
-4 0 -6 -7 -7 -17 -4 -11 4 -14 3 -9 -5 6 -11 -19 -18 -47 -13 -4 1 -10 -6
-13 -14 -5 -11 -11 -12 -25 -4 -15 7 -19 7 -17 -3 2 -7 -3 -12 -9 -10 -7 1
-13 -4 -13 -10 0 -9 -4 -8 -10 2 -9 13 -10 13 -11 0 -1 -8 -1 -19 1 -25 1 -5
-4 -5 -11 2 -13 13 -42 6 -33 -8 4 -8 -17 -14 -38 -10 -5 0 -8 -4 -8 -10 0 -5
-4 -7 -10 -4 -5 3 -10 2 -10 -4 0 -6 -7 -7 -17 -4 -9 4 -14 2 -10 -3 3 -6 -3
-16 -15 -23 -16 -10 -19 -10 -13 1 5 7 -2 4 -13 -7 -37 -35 -56 -50 -58 -45
-2 3 -14 -5 -29 -18 -15 -13 -29 -21 -32 -18 -3 2 -15 -6 -28 -19 -12 -14 -25
-22 -28 -18 -4 3 -7 -1 -7 -11 0 -9 -4 -15 -9 -12 -5 3 -20 -9 -35 -26 -14
-18 -26 -28 -26 -23 0 5 -8 -2 -17 -15 -10 -14 -17 -29 -15 -34 2 -5 -3 -4
-11 3 -12 9 -15 8 -13 -6 0 -10 -5 -18 -11 -18 -7 0 -12 -2 -10 -5 1 -3 -14
-21 -33 -40 -19 -19 -34 -38 -33 -42 2 -4 -4 -8 -13 -8 -8 0 -12 -5 -9 -10 3
-6 -1 -13 -9 -16 -9 -3 -16 -12 -16 -20 0 -8 -5 -14 -11 -14 -6 0 -9 -6 -6
-14 4 -10 0 -14 -14 -11 -16 3 -18 1 -9 -16 8 -15 8 -19 -2 -17 -7 2 -12 -3
-10 -11 2 -8 -3 -11 -12 -8 -10 4 -13 -1 -11 -18 1 -13 -4 -26 -11 -29 -8 -3
-14 -16 -14 -28 0 -17 -3 -19 -9 -10 -6 10 -10 8 -14 -10 -4 -12 -5 -24 -4
-25 1 -1 -7 -9 -18 -18 -11 -9 -13 -13 -6 -9 8 4 4 -8 -9 -27 -14 -18 -23 -42
-22 -51 2 -10 -2 -18 -7 -18 -6 0 -11 -12 -11 -26 0 -14 -4 -23 -10 -19 -5 3
-10 -2 -11 -12 -1 -35 -8 -56 -19 -63 -9 -5 -9 -9 -1 -14 7 -5 4 -14 -9 -28
-14 -15 -17 -26 -10 -39 7 -12 6 -19 -2 -21 -6 -2 -12 -12 -14 -21 -1 -9 1
-15 5 -13 12 8 6 -31 -7 -47 -7 -7 -9 -17 -5 -20 3 -4 0 -14 -8 -24 -12 -15
-12 -16 1 -8 12 6 13 5 3 -6 -17 -17 -17 -32 0 -23 9 6 9 4 -1 -8 -7 -9 -13
-38 -14 -66 -1 -28 -5 -49 -8 -47 -3 2 -5 -12 -6 -31 0 -19 3 -34 8 -34 4 0 8
-5 8 -11 0 -5 -6 -7 -13 -3 -7 5 -6 0 3 -11 9 -11 10 -16 3 -11 -7 4 -13 3
-13 -3 0 -5 5 -13 10 -16 8 -5 7 -11 -1 -21 -9 -11 -9 -14 0 -14 8 0 9 -5 1
-19 -13 -26 -13 -34 2 -25 8 5 9 2 5 -9 -3 -10 -2 -17 4 -17 6 0 7 -5 4 -10
-4 -6 -12 -8 -18 -4 -7 3 -3 -2 7 -10 11 -9 16 -16 10 -16 -5 0 -9 -13 -9 -30
0 -19 5 -30 14 -30 10 0 11 -3 2 -14 -10 -11 -8 -17 6 -25 10 -6 12 -11 6 -11
-9 0 -10 -7 -3 -24 6 -16 5 -28 -3 -36 -10 -10 -8 -12 7 -6 16 5 17 4 6 -9 -7
-8 -8 -15 -3 -15 5 0 10 -12 11 -27 1 -15 8 -30 15 -35 9 -6 8 -8 -3 -8 -12
-1 -11 -3 3 -11 14 -8 15 -14 7 -24 -8 -9 -7 -17 5 -29 9 -9 13 -16 8 -16 -4
0 -1 -5 7 -10 13 -8 13 -10 1 -10 -11 0 -10 -4 5 -16 10 -8 13 -12 5 -9 -9 5
-8 -1 4 -19 10 -14 13 -26 9 -26 -5 0 -3 -4 4 -9 7 -4 14 -17 15 -29 0 -11 5
-18 9 -16 4 3 8 -2 8 -10 0 -9 4 -16 9 -16 5 0 8 -11 7 -25 -2 -13 2 -23 8
-22 6 1 12 -9 14 -22 2 -13 12 -26 23 -28 10 -3 19 -10 19 -15 0 -5 -5 -6 -10
-3 -6 3 -10 1 -10 -4 0 -6 4 -11 9 -11 4 0 24 -26 45 -57 20 -32 37 -51 37
-43 1 8 4 2 8 -15 4 -16 12 -29 19 -28 7 2 9 -4 5 -14 -5 -12 -3 -14 7 -8 10
6 12 4 6 -10 -6 -16 -4 -16 11 -4 9 8 14 9 10 2 -4 -6 -3 -14 3 -18 6 -4 7
-11 4 -17 -4 -6 -3 -9 2 -6 12 8 35 -17 26 -28 -4 -4 -2 -4 4 -1 13 7 44 -27
44 -49 0 -8 4 -13 9 -9 6 3 26 -10 45 -30 19 -19 37 -35 40 -35 3 0 20 -13 38
-30 18 -16 38 -30 46 -30 7 0 11 -4 7 -9 -3 -5 4 -12 15 -16 11 -3 20 -11 20
-17 0 -5 7 -7 16 -4 8 3 12 2 9 -4 -3 -6 1 -10 9 -10 8 0 19 -8 25 -17 5 -10
11 -16 13 -14 6 8 48 -10 48 -21 0 -5 7 -7 16 -4 10 4 13 2 8 -6 -5 -8 -2 -9
10 -5 10 4 15 3 11 -3 -3 -6 3 -10 15 -10 12 0 19 -4 16 -8 -4 -7 12 -12 56
-15 9 -1 14 -5 12 -9 -3 -4 4 -8 16 -8 14 0 19 -4 14 -12 -5 -9 -2 -9 9 1 10
8 17 9 17 3 0 -6 9 -14 21 -17 15 -5 17 -10 10 -19 -6 -7 -8 -16 -4 -19 3 -4
1 -7 -5 -7 -6 0 -9 -6 -6 -14 3 -8 -4 -16 -18 -20 -19 -5 -20 -8 -8 -16 13 -8
12 -10 -5 -11 -13 0 -15 -2 -6 -6 10 -4 8 -9 -10 -19 -13 -7 -18 -13 -10 -14
11 0 9 -4 -5 -15 -14 -11 -15 -14 -4 -15 13 0 13 -2 1 -9 -8 -5 -11 -16 -8
-25 3 -8 2 -18 -2 -20 -5 -3 -6 -16 -4 -30 3 -13 0 -27 -6 -30 -6 -4 -11 -13
-11 -19 0 -8 3 -7 9 2 6 10 9 2 9 -23 0 -24 -4 -34 -11 -30 -7 3 -5 -1 5 -8
12 -11 14 -18 6 -33 -9 -14 -8 -17 4 -13 10 4 15 -3 16 -24 1 -16 9 -37 17
-45 18 -18 20 -37 3 -28 -7 4 -5 0 5 -8 9 -8 17 -19 17 -26 0 -6 9 -16 20 -23
11 -7 20 -19 20 -26 0 -7 4 -11 8 -8 5 3 14 -4 22 -14 8 -10 17 -17 22 -14 4
3 5 -2 2 -10 -4 -12 0 -16 16 -16 14 0 20 -5 17 -13 -3 -8 1 -14 9 -15 8 -1
21 -3 29 -4 9 -1 14 -6 12 -13 -3 -6 4 -12 16 -12 11 -1 23 -6 26 -10 7 -9 19
-12 56 -15 14 -1 25 -7 25 -13 0 -5 5 -3 10 5 9 13 10 13 10 0 0 -13 1 -13 10
0 5 8 10 10 10 3 0 -8 45 -12 156 -12 125 -2 154 1 148 11 -4 8 -3 10 2 5 5
-5 9 -14 9 -20 1 -7 6 -11 13 -10 15 4 16 -53 1 -62 -6 -4 -8 -13 -5 -21 3 -8
2 -14 -3 -14 -5 0 -11 -9 -14 -19 -3 -15 -1 -18 12 -14 14 4 14 3 0 -6 -20
-13 -26 -151 -6 -151 8 0 6 -4 -3 -10 -12 -8 -12 -10 -1 -10 8 0 11 -7 8 -20
-3 -13 0 -20 9 -20 8 0 14 -10 14 -25 0 -14 5 -25 11 -25 5 0 8 -4 4 -10 -3
-5 4 -19 15 -30 11 -11 18 -26 14 -33 -4 -7 -4 -9 1 -5 9 8 28 -9 38 -35 3 -9
14 -17 23 -17 10 0 15 -3 11 -6 -7 -8 17 -34 32 -34 6 0 11 -4 11 -10 0 -5 10
-10 23 -10 18 0 19 -2 7 -11 -12 -9 -11 -10 8 -6 12 3 20 1 16 -4 -6 -11 44
-32 57 -23 5 3 9 -2 9 -10 0 -8 5 -18 12 -22 7 -4 8 -3 4 4 -4 7 -1 12 8 12 9
0 16 -4 16 -10 0 -5 18 -10 40 -10 23 0 40 -5 40 -11 0 -8 5 -8 15 1 11 9 15
9 15 1 0 -7 5 -9 12 -5 15 10 58 12 52 3 -2 -4 21 -7 51 -6 30 1 55 6 55 12 0
6 3 6 8 -1 14 -20 41 -24 51 -6 6 9 11 12 11 7 0 -6 23 -11 51 -13 36 -1 48 1
43 10 -5 8 -3 8 7 2 8 -5 25 -9 39 -10 14 0 31 -4 38 -8 7 -4 12 -3 12 1 0 5
50 8 110 6 82 -1 109 1 104 10 -5 8 -3 8 7 -1 18 -16 53 -16 43 1 -6 8 -3 8 9
-2 9 -7 24 -11 32 -7 8 3 15 1 15 -5 0 -6 5 -7 10 -4 6 4 7 12 4 18 -5 8 -3 8
7 0 7 -7 21 -13 32 -13 12 0 16 4 11 13 -6 9 -4 9 7 2 8 -6 27 -12 43 -14 21
-2 26 1 20 11 -6 10 -5 11 7 2 20 -16 112 -17 103 -1 -4 7 2 3 14 -7 12 -11
22 -15 22 -10 0 6 35 9 80 8 55 -2 80 1 80 9 0 8 3 8 8 2 11 -15 106 -19 96
-4 -5 8 -3 9 7 3 8 -5 25 -9 39 -9 14 0 31 -4 38 -8 7 -5 12 -4 12 2 0 12 27
10 47 -2 6 -4 14 -1 16 5 4 10 8 9 16 -2 10 -14 16 -7 12 14 -1 5 5 4 13 -3 8
-7 20 -10 26 -6 5 3 10 0 10 -7 1 -8 6 -6 15 6 15 20 15 20 15 0 0 -10 4 -15
8 -9 4 6 39 10 77 10 39 0 73 -4 77 -10 5 -7 8 -7 8 0 0 11 289 12 316 1 8 -3
13 -2 10 3 -3 4 24 6 60 4 54 -4 65 -2 58 9 -4 7 2 4 14 -6 14 -12 22 -14 22
-7 0 8 7 10 20 6 12 -4 28 -1 37 7 12 9 15 9 9 1 -4 -8 -1 -13 8 -13 9 0 16 6
16 13 0 8 3 8 8 2 8 -13 22 -13 41 -1 10 7 12 6 6 -4 -6 -10 -4 -11 11 -6 32
13 85 16 78 4 -5 -7 -2 -8 7 -2 8 4 20 9 27 10 8 2 21 6 30 10 9 4 25 6 35 5
10 -2 25 6 34 16 8 10 11 12 8 5 -6 -11 -3 -11 16 0 13 7 26 16 29 19 8 8 44
22 53 20 5 -1 6 3 3 8 -3 5 1 12 10 15 8 3 12 10 9 16 -4 6 1 7 12 3 10 -3 15
-3 11 1 -7 9 27 46 43 46 5 0 7 5 4 10 -3 6 -1 10 4 10 6 0 11 6 11 14 0 7 10
21 23 30 12 9 15 14 7 10 -12 -6 -13 -4 -2 7 6 7 12 21 12 31 0 10 6 21 14 24
8 3 17 12 20 20 4 10 2 13 -7 8 -9 -6 -9 -5 0 7 14 17 17 249 2 249 -5 0 -9 7
-9 15 0 8 -4 15 -10 15 -5 0 -10 14 -10 31 0 22 5 32 20 36 11 3 17 10 13 17
-4 6 1 5 10 -3 14 -11 17 -11 17 0 0 12 2 12 9 0 5 -8 16 -11 25 -8 8 3 18 2
21 -3 3 -6 15 -6 29 0 15 5 27 5 35 -3 8 -8 11 -7 11 3 0 13 2 13 10 0 8 -13
10 -12 10 4 0 20 0 20 15 0 8 -10 15 -14 15 -9 0 6 17 9 40 7 24 -3 47 1 57 9
10 9 14 9 10 2 -5 -8 0 -11 13 -10 11 1 20 6 20 12 0 5 5 3 10 -5 6 -10 10
-11 10 -2 0 6 5 12 12 12 19 0 88 33 88 43 0 4 5 5 10 2 6 -3 13 0 16 9 3 8
12 12 20 9 8 -3 14 0 14 6 0 6 7 11 16 11 8 0 13 4 10 8 -3 5 9 21 25 36 17
16 28 35 25 42 -3 9 0 11 11 7 12 -5 15 -2 10 9 -3 10 0 19 9 22 8 3 14 19 14
36 0 20 5 30 16 30 8 0 12 5 9 10 -4 6 -1 17 5 25 10 12 10 15 -1 15 -10 0
-10 3 -3 8 14 9 16 212 1 212 -5 0 -7 7 -3 15 3 8 -2 21 -10 30 -8 8 -16 24
-17 35 -1 11 -8 22 -16 25 -14 5 -14 7 -1 15 13 8 12 10 -2 10 -13 0 -18 8
-18 27 0 14 3 24 6 20 3 -3 14 3 24 13 11 11 28 17 40 15 11 -2 20 1 20 6 0 6
8 9 18 8 31 -3 43 1 37 11 -3 6 3 10 14 10 11 0 23 5 26 11 4 6 14 8 22 5 8
-3 11 -1 8 4 -6 9 8 14 20 8 2 -2 11 6 20 17 9 11 14 13 10 5 -4 -8 3 -4 15
10 12 14 18 19 14 11 -5 -9 2 -8 19 5 15 10 27 23 27 27 0 5 5 5 10 2 6 -3 10
-1 10 5 0 6 5 8 12 4 7 -5 9 -2 5 9 -4 12 -2 14 10 10 11 -4 14 -2 9 5 -5 8
-2 10 8 6 9 -4 18 1 22 10 3 9 11 16 16 16 13 0 64 40 52 41 -5 0 1 4 14 10
13 5 21 13 17 19 -3 6 1 7 9 4 11 -4 16 0 16 10 0 9 7 16 15 16 8 0 15 8 15
17 0 9 3 13 6 10 8 -7 54 42 54 57 0 5 3 7 6 3 12 -11 50 44 46 65 -1 4 5 5
13 2 9 -4 15 0 15 10 0 9 7 16 15 16 9 0 12 6 9 15 -4 8 -1 15 5 15 6 0 11 7
11 15 0 8 5 15 10 15 6 0 16 12 23 28 6 15 20 33 29 40 10 7 18 20 18 28 0 8
9 24 20 36 11 12 20 32 20 44 0 13 7 27 15 32 9 4 18 26 22 47 3 22 16 48 27
58 12 10 14 15 6 11 -12 -6 -13 -5 -3 7 6 8 11 30 11 48 -1 22 5 37 16 43 9 5
14 13 11 18 -3 5 -1 11 5 15 5 3 10 28 10 56 0 27 5 49 10 49 6 0 10 8 10 18
0 10 5 23 11 29 8 8 8 17 -1 33 -7 12 -7 20 -2 16 7 -4 10 77 10 241 0 179 -3
250 -11 255 -9 6 -8 8 1 8 8 0 10 5 6 12 -4 7 -9 23 -10 37 -2 13 -7 27 -13
30 -5 4 -11 26 -12 49 -2 23 -7 42 -12 42 -4 0 -6 4 -2 9 3 6 -1 13 -9 18 -8
5 -16 28 -18 57 -3 30 -11 53 -21 61 -9 7 -17 24 -17 39 0 15 -4 25 -9 22 -4
-3 -8 4 -7 17 1 13 -4 21 -11 20 -9 -2 -13 9 -13 33 0 19 -4 33 -9 30 -5 -3
-18 14 -30 39 -12 25 -26 45 -31 45 -6 0 -10 11 -10 25 0 15 -6 25 -14 25 -8
0 -21 14 -30 30 -8 17 -10 27 -4 24 7 -5 8 -2 4 5 -5 7 -13 10 -20 8 -6 -3
-17 6 -23 19 -8 18 -8 23 0 19 7 -3 2 2 -10 11 -13 9 -23 23 -23 32 0 8 -3 13
-6 9 -7 -6 -34 16 -34 28 0 4 -13 19 -30 35 -16 15 -26 31 -22 35 4 3 2 5 -3
3 -11 -3 -17 1 -69 47 -16 13 -33 22 -39 18 -5 -3 -7 -1 -3 5 8 13 -33 44 -47
35 -6 -4 -7 -1 -2 7 6 10 4 12 -9 7 -9 -4 -15 -3 -12 2 3 4 -3 16 -14 26 -11
10 -20 14 -21 9 0 -5 -4 1 -9 13 -6 15 -15 21 -25 17 -8 -3 -15 -2 -15 4 0 8
-27 20 -47 20 -3 0 -9 5 -12 10 -8 12 -110 62 -128 62 -7 0 -13 5 -13 10 0 6
-9 10 -20 10 -11 0 -20 5 -20 10 0 6 -13 10 -30 10 -16 0 -30 5 -30 11 0 7
-12 10 -30 7 -18 -3 -31 0 -34 9 -3 7 -21 13 -40 13 -19 0 -38 5 -41 10 -3 6
-26 10 -51 10 -34 0 -43 3 -38 13 6 9 5 9 -8 0 -8 -7 -18 -10 -22 -6 -9 10
-37 13 -31 4 2 -4 -3 -8 -11 -8 -9 0 -13 6 -10 14 4 9 2 11 -7 6 -6 -4 -23 -6
-36 -4 -17 2 -21 -1 -15 -11 6 -11 5 -11 -8 0 -12 9 -18 10 -23 2 -4 -7 -16
-10 -26 -7 -10 3 -22 0 -26 -5 -4 -7 -1 -8 7 -3 9 6 11 4 5 -4 -5 -9 -11 -9
-17 -3 -6 6 -17 8 -24 5 -8 -3 -18 6 -26 24 -7 15 -16 30 -20 33 -4 3 -8 25
-9 48 -2 23 -8 42 -13 42 -6 0 -5 4 2 9 10 6 9 10 -7 14 -13 3 -21 14 -22 29
-1 12 -2 34 -3 48 0 14 -9 32 -18 41 -10 9 -18 25 -18 36 0 23 -22 73 -32 73
-5 0 -8 12 -8 26 0 14 -4 23 -10 19 -5 -3 -10 3 -10 14 0 12 -4 21 -10 21 -5
0 -10 9 -10 21 0 13 -4 18 -12 13 -8 -5 -9 -2 -5 10 4 10 3 15 -3 11 -12 -7
-30 35 -22 50 3 6 2 7 -2 3 -13 -12 -47 27 -40 46 4 11 2 16 -6 14 -6 -2 -17
6 -23 16 -7 11 -22 31 -34 45 -12 13 -19 29 -16 35 3 6 3 8 -1 4 -10 -8 -47
23 -40 34 3 4 -2 8 -11 8 -9 0 -13 5 -10 10 3 6 -1 10 -10 10 -9 0 -13 4 -10
10 3 5 -3 15 -15 22 -11 7 -20 19 -20 27 0 8 -3 12 -6 8 -8 -7 -80 64 -76 76
1 5 -2 6 -8 2 -5 -3 -21 6 -35 21 -14 15 -25 24 -25 21 0 -4 -13 7 -29 23 -15
17 -35 30 -42 30 -8 0 -21 9 -29 20 -8 11 -20 20 -28 20 -7 0 -10 5 -7 10 4 6
3 10 -2 9 -21 -4 -44 2 -39 10 3 5 -8 14 -24 21 -17 7 -30 16 -30 21 0 5 -9 9
-20 9 -11 0 -20 4 -20 8 0 5 -16 14 -35 22 -19 8 -35 19 -35 24 0 6 -4 5 -9
-3 -7 -11 -10 -9 -16 9 -6 18 -9 20 -16 9 -6 -10 -9 -11 -9 -1 0 6 -7 12 -16
12 -8 0 -22 6 -30 14 -8 8 -23 13 -34 11 -11 -2 -18 0 -15 6 5 8 -23 14 -47
10 -5 0 -8 3 -8 9 0 6 -11 10 -25 10 -14 0 -25 5 -25 10 0 6 -18 10 -41 10
-22 0 -38 4 -35 8 3 5 -8 9 -24 10 -16 0 -38 5 -49 11 -11 6 -33 11 -50 11
-17 0 -31 5 -31 11 0 7 -10 9 -25 7 -14 -3 -25 -1 -25 3 0 5 -11 4 -25 -1 -13
-5 -26 -6 -29 -1 -3 4 -23 6 -45 4 -26 -2 -41 1 -41 8 0 8 -6 7 -17 -2 -13
-11 -17 -11 -20 -1 -3 6 -11 12 -19 12 -9 0 -13 -4 -10 -8 2 -4 -4 -8 -14 -8
-10 0 -16 4 -14 8 6 10 -26 5 -45 -6 -10 -6 -12 -5 -7 2 10 16 -7 15 -23 0
-11 -10 -13 -10 -7 0 5 7 1 12 -9 12 -9 0 -14 -4 -11 -8 3 -5 -1 -9 -9 -9 -8
0 -12 4 -9 9 3 4 0 8 -5 8 -6 0 -11 -6 -11 -12 0 -10 -3 -9 -9 1 -6 9 -11 10
-15 2 -4 -6 -12 -11 -17 -11 -6 0 -7 5 -4 10 3 6 4 10 1 10 -3 0 -7 -4 -10 -8z
m-3012 -2260 c3 -5 -1 -9 -9 -9 -8 0 -12 4 -9 9 3 4 7 8 9 8 2 0 6 -4 9 -8z"/>
<path d="M4710 596 c0 -2 7 -7 16 -10 8 -3 12 -2 9 4 -6 10 -25 14 -25 6z"/>
</g>
</svg>
